<svg width="512" height="512" viewBox="0 0 512 512" fill="none" xmlns="http://www.w3.org/2000/svg">
<path d="M85.3042 347.498C85.7002 347.769 86.1061 347.829 86.5121 347.628C86.6039 348.326 86.6971 349.045 86.793 349.784L86.7935 349.789C89.8056 373.008 95.3888 416.049 138.64 450.186C142.095 452.768 149.977 456.793 158.042 455.192C175.557 450.964 205.917 440.029 214.072 435.852C215.012 435.371 215.953 434.89 216.895 434.41C225.244 430.148 233.652 425.857 241.428 420.627C299.743 380.943 329.603 328.808 340.712 259.285C341.718 253.007 339.537 253.155 334.749 253.482C334.121 253.525 333.448 253.571 332.732 253.605C321.158 254.166 305.594 254.297 294.179 253.095C290.496 252.704 286.575 252.153 283.12 250.771C271.783 245.85 266.307 237.767 268.368 226.602C268.496 224.789 269.417 221.503 271.783 217.517C277.963 207.12 294.515 183.719 312.243 158.658C333.531 128.562 356.514 96.0703 365.265 80.8242C368.019 73.9918 363.474 69.0375 360.823 67.3997L360.839 67.3863C345.948 58.6385 318.145 56.7437 304.891 62.9853C293.644 42.7123 272.199 29 247.586 29C215.369 29 188.578 52.4682 182.994 83.4386C167.618 71.8397 148.55 64.9786 127.897 64.9786C76.8985 64.9786 35.5632 106.807 35.5632 158.391C35.5632 179.926 42.7709 199.758 54.8695 215.554C23.6527 221.333 0 248.998 0 282.242C0 319.693 30.0089 350.052 67.0276 350.052C73.364 350.052 79.4925 349.161 85.3042 347.498Z" fill="#FFB300"/>
<path fill-rule="evenodd" clip-rule="evenodd" d="M306.622 231.551C325.295 231.551 336.475 232.16 355.118 231.83C361.296 231.71 360.653 233.242 360.267 239.012C360.009 242.828 360.069 246.534 359.93 250.34C355.089 366.188 263.504 458.494 153.26 470.313C151.092 470.545 151.243 472.73 153.57 473.422C168.263 477.769 178.738 479.613 193.935 481.316C203.42 482.368 218.842 483.081 236.132 481.466C355.54 470.313 452.719 375.524 450.779 238.841C450.65 230.327 450.303 231.99 458.788 231.87C476.223 231.63 481.213 231.82 498.648 231.87C521.257 231.935 509.694 216.939 503.331 207.31C505.707 210.906 500.973 203.742 503.331 207.31C470.976 159.863 449.916 130.225 417.501 82.8171C408.52 69.2672 396.812 69.7214 387.83 82.8169C388.503 81.8353 387.216 83.7183 387.83 82.8169C381.464 92.4926 374.672 101.698 368.355 111.354C360.237 123.273 299.499 211.965 297.64 214.452C293.614 219.115 288.968 231.551 306.622 231.551Z" fill="#FFB300"/>
</svg>
